<?xml version="1.0" encoding="UTF-8"?>
<svg width="128px" height="108px" viewBox="0 0 128 108" version="1.1" xmlns="http://www.w3.org/2000/svg" xmlns:xlink="http://www.w3.org/1999/xlink">
    <!-- Generator: Sketch 46.2 (44496) - http://www.bohemiancoding.com/sketch -->
    <title>ProtoPie Logo Vertical</title>
    <desc>Created with Sketch.</desc>
    <defs></defs>
    <g id="Page-1" stroke="none" stroke-width="1" fill="none" fill-rule="evenodd">
        <g id="ProtoPie-Logo-Vertical" transform="translate(-86.000000, -40.000000)" fill="#FF7472">
            <g transform="translate(86.000000, 40.000000)">
                <path d="M74.6590714,64.017348 L70.6588409,60.0229725 L76.1878167,54.5022447 L70.4303843,48.7530113 L64.9010012,54.2745523 L58.7432607,48.1248242 L58.742039,48.126044 L52.7117618,42.1043929 L52.7125762,42.1035797 L46.6000383,35.9993901 L52.1290141,30.4782557 L46.3719889,24.7302421 L40.8430131,30.2509699 L40.6964099,30.1045962 C39.0849967,28.3599031 39.1220547,25.6349128 40.8177648,23.9414505 C42.4218478,22.3394718 44.9523815,22.2195267 46.6998099,23.5734833 L47.1147783,23.9878022 L47.1143711,23.9886154 L52.8718035,29.7370356 L52.8718035,29.7370356 L58.4015938,35.2577634 L64.158619,29.5093432 L58.629236,23.9878022 L58.629236,23.9878022 L52.8722108,18.239382 L52.8718035,18.239382 L46.9734692,12.3494672 C49.426629,10.4925543 52.1786963,9.0113338 55.1437455,7.98183882 L59.143976,11.9766209 L53.6150002,17.4977553 L59.3720254,23.2461755 L64.9010012,17.7250411 L71.1739881,23.9878022 L71.1731737,23.9886154 L76.9301989,29.7374422 L76.9306061,29.7370356 L83.2031858,35.9993901 L77.6729883,41.5209311 L83.4304207,47.2697579 L88.9598038,41.7486235 L89.3759939,42.1637556 C90.7487697,43.9096685 90.6331161,46.4504718 89.0229246,48.0589561 C87.3467616,49.7320887 84.6606657,49.787792 82.9116084,48.2341979 L82.6880386,48.0113846 L82.6880386,48.010978 L76.9306061,42.2625578 L71.4012231,36.7414234 L65.6441979,42.4902502 L71.1735809,48.0113846 L71.1731737,48.0117912 L76.9301989,53.7602114 L76.9306061,53.7593982 L82.8293477,59.6497196 C80.3757807,61.5070392 77.6237133,62.9882596 74.6590714,64.017348 M36.8419681,45.742999 L40.8430131,41.7482169 L47.1147783,48.0113846 L47.1131494,48.0126044 L52.8705819,53.7610246 L52.8718035,53.7593982 L59.143976,60.0229725 L58.6618145,60.5039728 C56.9176439,61.7912481 54.4420864,61.6517865 52.8624372,60.0754231 C51.3752295,58.5901367 51.1650983,56.3111796 52.2210483,54.5961679 L46.37036,48.7546377 L41.216444,53.9008928 C39.3566198,51.4511664 37.8730771,48.7038135 36.8419681,45.742999 M92.9608488,26.2565944 L88.9598038,30.2509699 L82.6876313,23.9878022 L82.6880386,23.9878022 L76.8271694,18.1361072 L70.6584337,11.9762143 L70.6722795,11.9627967 L70.6914194,11.9823132 C72.4307031,10.2465651 75.2593299,10.2465651 76.9982065,11.9823132 C78.4858215,13.467193 78.6935093,15.7457435 77.6363375,17.4607552 L83.4304207,23.2465821 L88.5859657,18.098294 C90.4461971,20.5476138 91.9297398,23.2957799 92.9608488,26.2565944 M99.9733672,32.7706304 C101.285873,34.7324445 101.285873,37.2671489 99.9733672,39.228963 L99.2989926,40.2369085 C98.3110501,41.7140631 97.9579808,43.4868111 98.3049417,45.2294713 L98.5415429,46.4183509 C99.001714,48.7322751 98.0308752,51.0742542 96.0659854,52.3847053 L95.0568669,53.0584309 C93.5778038,54.0456401 92.5719431,55.5488166 92.2249823,57.290257 L91.9879738,58.4799499 C91.526581,60.7930608 89.7315066,62.5861385 87.414362,63.0459959 L86.2240257,63.2826334 C84.4790407,63.6298643 82.9739147,64.6345571 81.9851578,66.1104918 L81.3103759,67.1192505 C80.2279558,68.7366798 78.4190356,69.7015264 76.4712495,69.7015264 C76.0917102,69.7015264 75.7093202,69.6645264 75.3354821,69.5905264 L74.1443313,69.3538889 C73.7175532,69.2689108 73.2801871,69.2262185 72.8456716,69.2262185 C71.5237996,69.2262185 70.2438725,69.6137022 69.1451631,70.3463839 L68.1352301,71.0201094 C67.1745721,71.6609009 66.0567229,72 64.9014085,72 C63.7465012,72 62.6282448,71.6609009 61.667994,71.0201094 L60.6576538,70.3463839 C59.5589444,69.6137022 58.2790173,69.2262185 56.9575526,69.2262185 C56.5226298,69.2262185 56.0856709,69.2689108 55.6588928,69.3538889 L54.4673348,69.5905264 C54.0939039,69.6645264 53.711514,69.7015264 53.3315674,69.7015264 C51.3841886,69.7023396 49.5748611,68.7366798 48.492441,67.1192505 L47.8176591,66.1104918 C46.8289022,64.6345571 45.3241835,63.6298643 43.5796057,63.2826334 L42.3884549,63.0459959 C40.0717175,62.5861385 38.2762359,60.7930608 37.8148431,58.4799499 L37.5778346,57.290257 C37.2308738,55.5488166 36.2250131,54.0456401 34.7463572,53.0584309 L33.7368315,52.3847053 C31.7723489,51.0742542 30.8011029,48.7322751 31.2616812,46.4183509 L31.4982825,45.2294713 C31.8448361,43.4868111 31.4917668,41.7140631 30.5038243,40.2369085 L29.8294497,39.228963 C28.516944,37.2671489 28.516944,34.7324445 29.8294497,32.7706304 L30.5038243,31.7626849 C31.4917668,30.2855304 31.8448361,28.5127823 31.4982825,26.7705287 L31.2616812,25.5812425 C30.8011029,23.2677249 31.7723489,20.9257458 33.7368315,19.6148881 L34.7463572,18.9411625 C36.2254204,17.9543599 37.2308738,16.4511834 37.5778346,14.7089298 L37.8148431,13.5196436 C38.2762359,11.206126 40.0717175,9.41386145 42.3884549,8.95319091 L43.5796057,8.71655344 C45.3241835,8.36972911 46.8289022,7.36584953 47.8176591,5.8891016 L48.492441,4.88074949 C49.5748611,3.26332018 51.3841886,2.29766039 53.3315674,2.29766039 C53.711514,2.29766039 54.0939039,2.3354736 54.4673348,2.40947363 L55.6588928,2.6461111 C56.0856709,2.73068257 56.5226298,2.77378149 56.9575526,2.77378149 C58.2790173,2.77378149 59.5589444,2.3858912 60.6576538,1.65280295 L61.667994,0.979483965 C62.6282448,0.338692463 63.7465012,0 64.9014085,0 C66.0567229,0 67.1745721,0.338692463 68.1352301,0.979483965 L69.1451631,1.65280295 C70.2438725,2.3858912 71.5237996,2.77378149 72.8452643,2.77378149 C73.2801871,2.77378149 73.7175532,2.73068257 74.1443313,2.6461111 L75.3354821,2.40947363 C75.7093202,2.3354736 76.0917102,2.29766039 76.4712495,2.29766039 C78.4190356,2.29766039 80.2279558,3.26332018 81.3103759,4.88074949 L81.9851578,5.8891016 C82.9739147,7.36584953 84.4786334,8.36972911 86.2240257,8.71655344 L87.414362,8.95319091 C89.7315066,9.41386145 91.526581,11.206126 91.9879738,13.5196436 L92.2249823,14.7089298 C92.5719431,16.4511834 93.5778038,17.9543599 95.0568669,18.9411625 L96.0659854,19.6148881 C98.0308752,20.9257458 99.001714,23.2677249 98.5415429,25.5812425 L98.3049417,26.7705287 C97.9579808,28.5127823 98.3110501,30.2855304 99.2989926,31.7626849 L99.9733672,32.7706304 Z M70.6583522,35.9995527 L76.187328,30.4788249 L70.4298956,24.7304047 L64.901327,30.2511325 L64.9009198,30.2503193 L59.1443018,35.9995527 L53.6136971,41.5223135 L59.3707223,47.2707337 L64.901327,41.7483796 L64.9017342,41.7487861 L70.6587594,35.9999593 L70.6583522,35.9995527 Z" id="Combined-Shape"></path>
                <path d="M0,107.584044 L0,83.042641 L8.16994368,83.042641 C12.8728104,83.042641 17.1294197,84.7064649 17.1294197,90.1485557 C17.1294197,96.3185695 12.563863,97.4277854 7.4147388,97.4277854 L4.3252643,97.4277854 L4.3252643,107.584044 L0,107.584044 Z M4.3252643,93.6841816 L6.93415388,93.6841816 C9.40573348,93.6841816 12.5981905,93.5455296 12.5981905,90.2178817 C12.5981905,87.2022008 9.74900843,86.7862448 7.4147388,86.7862448 L4.3252643,86.7862448 L4.3252643,93.6841816 Z M19.6931416,107.584044 L23.8124409,107.584044 L23.8124409,98.6756534 C23.8124409,97.7744154 24.3616808,94.4814305 28.2406877,94.4814305 C28.8929101,94.4814305 29.5451325,94.6200825 30.2316824,94.7933975 L30.2316824,90.7724897 C29.7510974,90.6338377 29.2705125,90.5298487 28.7556001,90.5298487 C26.5929679,90.5298487 24.7736107,91.6737276 23.8810959,93.5801926 L23.8124409,93.5801926 L23.8124409,90.9458047 L19.6931416,90.9458047 L19.6931416,107.584044 Z M30.701427,99.2649243 C30.701427,94.0308116 34.6834164,90.5298487 39.6609031,90.5298487 C44.6383898,90.5298487 48.6203791,94.0308116 48.6203791,99.2649243 C48.6203791,104.499037 44.6383898,108 39.6609031,108 C34.6834164,108 30.701427,104.499037 30.701427,99.2649243 Z M34.8207264,99.2649243 C34.8207264,101.864649 36.6400836,104.256396 39.6609031,104.256396 C42.6817226,104.256396 44.5010798,101.864649 44.5010798,99.2649243 C44.5010798,96.6651994 42.6817226,94.2734525 39.6609031,94.2734525 C36.6400836,94.2734525 34.8207264,96.6651994 34.8207264,99.2649243 Z M53.0377857,94.4814305 L53.0377857,102.10729 C53.0377857,106.024209 54.0676105,108 58.4272023,108 C59.3883721,108 60.8301269,107.861348 61.6883143,107.445392 L61.6883143,103.944429 C61.1734018,104.325722 60.1779045,104.464374 59.4570271,104.464374 C57.6376699,104.464374 57.157085,103.424484 57.157085,101.76066 L57.157085,94.4814305 L61.6883143,94.4814305 L61.6883143,90.9458047 L57.157085,90.9458047 L57.157085,86.1276479 L53.0377857,86.1276479 L53.0377857,90.9458047 L49.6393637,90.9458047 L49.6393637,94.4814305 L53.0377857,94.4814305 Z M63.1878837,99.2649243 C63.1878837,94.0308116 67.1698731,90.5298487 72.1473598,90.5298487 C77.1248465,90.5298487 81.1068359,94.0308116 81.1068359,99.2649243 C81.1068359,104.499037 77.1248465,108 72.1473598,108 C67.1698731,108 63.1878837,104.499037 63.1878837,99.2649243 Z M67.3071831,99.2649243 C67.3071831,101.864649 69.1265403,104.256396 72.1473598,104.256396 C75.1681793,104.256396 76.9875365,101.864649 76.9875365,99.2649243 C76.9875365,96.6651994 75.1681793,94.2734525 72.1473598,94.2734525 C69.1265403,94.2734525 67.3071831,96.6651994 67.3071831,99.2649243 Z M84.4257626,107.584044 L84.4257626,83.042641 L92.5957062,83.042641 C97.298573,83.042641 101.555182,84.7064649 101.555182,90.1485557 C101.555182,96.3185695 96.9896255,97.4277854 91.8405014,97.4277854 L88.7510269,97.4277854 L88.7510269,107.584044 L84.4257626,107.584044 Z M88.7510269,93.6841816 L91.3599164,93.6841816 C93.831496,93.6841816 97.023953,93.5455296 97.023953,90.2178817 C97.023953,87.2022008 94.174771,86.7862448 91.8405014,86.7862448 L88.7510269,86.7862448 L88.7510269,93.6841816 Z M104.187559,107.584044 L108.306858,107.584044 L108.306858,90.9458047 L104.187559,90.9458047 L104.187559,107.584044 Z M103.603992,85.2957359 C103.603992,86.6129298 104.702472,87.7914718 106.212881,87.7914718 C107.723291,87.7914718 108.890426,86.7169188 108.890426,85.2957359 C108.890426,83.874553 107.723291,82.8 106.212881,82.8 C104.702472,82.8 103.603992,83.978542 103.603992,85.2957359 Z M128,100.72077 L115.436137,100.72077 C115.710757,103.181843 117.564442,104.672352 119.864384,104.672352 C121.924033,104.672352 123.262806,103.701788 124.292631,102.419257 L127.244795,104.672352 C125.322455,107.064099 122.885203,108 120.276314,108 C115.298827,108 111.316838,104.499037 111.316838,99.2649243 C111.316838,94.0308116 115.298827,90.5298487 120.276314,90.5298487 C124.876198,90.5298487 128,93.7881706 128,99.5768913 L128,100.72077 Z M115.436137,97.6011004 L123.880701,97.6011004 C123.846373,95.1746905 122.267308,93.6495186 119.692746,93.6495186 C117.255494,93.6495186 115.745084,95.2093535 115.436137,97.6011004 Z" id="ProtoPie"></path>
            </g>
        </g>
    </g>
</svg>